<?xml version="1.0" encoding="utf-8"?>
<!-- Generator: Adobe Illustrator 16.0.0, SVG Export Plug-In . SVG Version: 6.00 Build 0)  -->
<!DOCTYPE svg PUBLIC "-//W3C//DTD SVG 1.1//EN" "http://www.w3.org/Graphics/SVG/1.1/DTD/svg11.dtd">
<svg version="1.1" xmlns="http://www.w3.org/2000/svg" xmlns:xlink="http://www.w3.org/1999/xlink" x="0px" y="0px" width="800px"
	 height="498.829px" viewBox="0 0 800 498.829" enable-background="new 0 0 800 498.829" xml:space="preserve">
<g id="Background">
	<polygon fill="#1F4368" points="800,500.025 0,498.55 0,-2.355 800,-0.881 	"/>
	<path fill="#F2E6CD" d="M189,477"/>
</g>
<g id="Objects">
	<g>
		<g>
			<circle fill="#F2E6CD" cx="309.364" cy="255.663" r="4.537"/>
			<g>
				<g>
					<rect x="320.721" y="197.737" fill="#F2E6CD" width="140.371" height="140.368"/>
					<g>
						<rect x="331.203" y="218.287" fill="#F2E6CD" width="59.308" height="40.527"/>
						<g>
							<rect x="334.68" y="220.95" fill="#1F4368" width="0.458" height="29.269"/>
							<rect x="335.43" y="220.95" fill="#1F4368" width="2.249" height="29.269"/>
							<rect x="335.43" y="251.249" fill="#1F4368" width="2.249" height="4.413"/>
							<rect x="340.77" y="220.95" fill="#1F4368" width="1.897" height="34.711"/>
							<rect x="349.798" y="251.249" fill="#1F4368" width="2.249" height="4.413"/>
							<rect x="353.416" y="251.249" fill="#1F4368" width="2.249" height="4.413"/>
							<rect x="357.033" y="251.249" fill="#1F4368" width="2.25" height="4.413"/>
							<rect x="360.653" y="251.249" fill="#1F4368" width="2.25" height="4.413"/>
							<rect x="374.319" y="251.249" fill="#1F4368" width="2.248" height="4.413"/>
							<rect x="370.945" y="251.249" fill="#1F4368" width="2.248" height="4.413"/>
							<rect x="377.937" y="251.249" fill="#1F4368" width="2.249" height="4.413"/>
							<rect x="381.557" y="251.249" fill="#1F4368" width="2.248" height="4.413"/>
							<rect x="343.264" y="220.95" fill="#1F4368" width="1.195" height="34.711"/>
							<rect x="345.265" y="220.95" fill="#1F4368" width="0.598" height="34.711"/>
							<rect x="356.595" y="220.95" fill="#1F4368" width="0.598" height="29.269"/>
							<rect x="359.477" y="220.95" fill="#1F4368" width="0.598" height="29.269"/>
							<rect x="364.254" y="220.95" fill="#1F4368" width="0.599" height="34.711"/>
							<rect x="377.655" y="220.95" fill="#1F4368" width="0.599" height="29.269"/>
							<rect x="346.145" y="220.95" fill="#1F4368" width="2.812" height="34.711"/>
							<rect x="353.803" y="220.95" fill="#1F4368" width="2.46" height="29.269"/>
							<rect x="365.184" y="220.95" fill="#1F4368" width="2.461" height="34.711"/>
							<rect x="374.634" y="220.95" fill="#1F4368" width="2.461" height="29.269"/>
							<rect x="351.52" y="220.95" fill="#1F4368" width="1.896" height="29.269"/>
							<rect x="360.583" y="220.95" fill="#1F4368" width="1.898" height="29.269"/>
							<rect x="372.072" y="220.95" fill="#1F4368" width="1.896" height="29.269"/>
							<rect x="379.061" y="220.95" fill="#1F4368" width="1.897" height="29.269"/>
							<rect x="385.141" y="220.95" fill="#1F4368" width="1.896" height="34.711"/>
							<rect x="349.833" y="220.95" fill="#1F4368" width="1.123" height="29.269"/>
							<rect x="357.492" y="220.95" fill="#1F4368" width="1.124" height="29.269"/>
							<rect x="367.961" y="220.95" fill="#1F4368" width="1.123" height="34.711"/>
							<rect x="369.858" y="220.95" fill="#1F4368" width="1.124" height="29.269"/>
							<rect x="381.347" y="220.95" fill="#1F4368" width="1.123" height="29.269"/>
							<rect x="383.17" y="220.95" fill="#1F4368" width="1.127" height="29.269"/>
							<rect x="338.453" y="220.95" fill="#1F4368" width="0.877" height="34.711"/>
						</g>
					</g>
					<path fill="#1F4368" d="M331.844,314.294l1.618,1.265l-1.523,2.917c-0.762,1.346,0.548,2.657,1.378,3.112
						c0.822,0.447,2.094,0.503,3.283,0.486l2.143-3.5l1.618,0.875l-2.808-5.203L331.844,314.294z M332.081,321.437l3.473,6.415
						c0.699,0.891,2.014,1.103,3.379,1.071h3.664v-6.076l-6.946-0.052C334.571,322.862,333.16,322.635,332.081,321.437z
						 M353.934,309.609l-1.89,0.804l-1.813-2.745c-0.807-1.317-2.586-0.811-3.39-0.303c-0.79,0.5-1.454,1.588-2.018,2.635
						l2.022,3.571l-1.547,0.99l5.909,0.065L353.934,309.609z M347.574,306.358l-7.296-0.074c-1.119,0.178-1.94,1.227-2.574,2.437
						l-1.778,3.205l5.315,2.945l3.412-6.053C345.119,307.844,346,306.72,347.574,306.358z M347.891,331.118l0.215-2.043l3.279-0.255
						c1.545-0.067,1.96-1.87,1.908-2.818c-0.055-0.935-0.685-2.041-1.33-3.042l-4.102,0.039l-0.113-1.835l-2.925,5.136
						L347.891,331.118z M353.821,327.132l3.599-6.345c0.387-1.065-0.133-2.294-0.883-3.432l-1.943-3.109l-5.152,3.22l3.639,5.917
						C353.709,324.263,354.266,325.582,353.821,327.132z"/>
					<g>
						<path fill="#1F4368" d="M451.271,321.407c-0.063-6.792-5.414-12.34-12.128-12.715v-0.557c0-0.397-0.324-0.721-0.724-0.721
							c-0.398,0-0.719,0.324-0.719,0.721v0.557c-6.619,0.369-11.913,5.762-12.125,12.42c-0.094,0.327-0.145,0.666-0.145,1.021h1.284
							c0-0.21,0.029-0.415,0.08-0.61h0.057c0-0.064,0.002-0.133,0.005-0.198c0.333-0.945,1.232-1.625,2.289-1.625
							c1.341,0,2.433,1.092,2.433,2.433h1.286c0-1.34,1.088-2.433,2.43-2.433c1.226,0,2.237,0.911,2.406,2.088v6.498
							c0,0.63-0.515,1.144-1.145,1.144c-0.632,0-1.144-0.514-1.144-1.144c0-0.399-0.323-0.723-0.721-0.723
							c-0.4,0-0.719,0.324-0.719,0.723c0,1.425,1.157,2.584,2.583,2.584c1.423,0,2.587-1.159,2.587-2.586v-6.761h-0.053
							c0.271-1.044,1.222-1.823,2.352-1.823c1.34,0,2.432,1.092,2.432,2.433h1.283c0-0.083-0.006-0.161-0.008-0.241h0.008
							c0-1.341,1.093-2.431,2.435-2.431c1.208,0,2.21,0.89,2.397,2.051c0,0,0,0.007,0,0.011h0.002
							c0.017,0.119,0.032,0.246,0.032,0.369h1.283C451.306,321.726,451.291,321.566,451.271,321.407z"/>
						<path fill="#1F4368" d="M419.16,312.776v-5.609h-15.133v5.609c0,3.935,3.009,7.169,6.85,7.529v9.379h-5.071v1.433h11.579
							v-1.433h-5.074v-9.379C416.151,319.945,419.16,316.711,419.16,312.776z"/>
					</g>
					<rect x="313.901" y="189.083" fill="#EA4F77" width="154.01" height="23.557"/>
				</g>
				<g>
					<g>
						<path fill="#FFAB25" d="M365.747,352.972c-1.625,0.162-3.306,0.064-4.936,0.081c-1.967,0.022-3.936-0.015-5.901-0.076
							c-3.654-0.113-7.3-0.318-10.952-0.451c0.523-1.424,0.432-3.121,0.051-4.564c-0.58-2.192-1.855-4.189-3.35-5.967
							c2.28-0.432,4.563,0.58,6.698,1.264c2.488,0.799,5.021,0.824,7.605,0.997c2.546,0.169,5.122,0.567,7.202,2.161
							C364.107,347.905,365.884,350.423,365.747,352.972z"/>
						<path fill="#FFAB25" d="M366.771,347.251c-0.543,0.319-1.233,0.441-1.838,0.584c-0.422-0.56-0.889-1.082-1.376-1.567
							c-2.045-2.041-4.891-2.724-7.679-2.974c-2.794-0.25-5.568-0.166-8.269-1.031c-2.508-0.805-5.03-1.854-7.692-1.148
							c-0.008,0.002-0.016,0.003-0.022,0.006c-0.512-0.559-1.039-1.096-1.561-1.604c-0.182-0.174-0.361-0.346-0.543-0.515
							c2.505-0.253,5.019,0.135,7.493,0.562c2.733,0.471,5.423,0.834,8.193,0.969c2.777,0.136,5.647,0.241,8.268,1.265
							C364.063,342.702,366.613,344.587,366.771,347.251z"/>
						<path fill="#FFAB25" d="M320.179,339.04c-0.081-0.096-0.165-0.177-0.191-0.239c-0.463-0.495-0.934-0.983-1.415-1.464
							l-1.214-1.187c-0.009-0.029-0.196-0.146-0.199-0.176c-0.673-0.624-1.361-1.229-2.068-1.81l-0.76-0.605
							c-0.67-0.519-1.356-1.017-2.061-1.486c-3.2-2.123-6.675-3.656-10.374-4.675c-0.637-0.175-0.438-1.186,0.203-1.009
							c4.112,1.131,7.981,2.865,11.469,5.335c2.657,1.883,5.049,4.101,7.267,6.479c0.042,0.043,0.086,0.085,0.127,0.134
							c0.325,0.352,0.646,0.706,0.964,1.065c2.128,2.389,4.085,4.927,6.282,7.258c2.211,2.346,4.694,4.653,7.713,5.906
							c2.351,0.974,5.756,2.461,7.218-0.354c1.417-2.725-0.629-5.371-2.13-7.723c-2.004-3.142-4.772-5.677-7.602-8.061
							c-2.812-2.364-5.116-5.313-7.8-7.825c-2.527-2.366-4.249-5.724-5.355-9.054c-0.019-0.035-0.034-0.074-0.045-0.118
							c-0.005-0.021-0.01-0.04-0.016-0.06c-0.001-0.006-0.004-0.011-0.004-0.016c-0.005-0.014-0.005-0.026-0.009-0.04
							c-1.449-5.903-2.513-12.826-7.135-17.201c-2.437-2.305-5.458-3.78-8.33-5.444c-1.41-0.817-2.86-1.666-4.104-2.728
							c-1.234-1.053-2.43-2.154-3.638-3.238c-2.817-2.535-5.763-4.88-9.345-6.226c-3.421-1.283-6.989-2.181-10.619-2.6
							c-3.64-0.416-7.235-0.223-10.88-0.094c-0.234,0.007-0.468,0.015-0.702,0.022l-3.394,24.651
							c1.018,0.096,2.027,0.252,3.025,0.481c3.6,0.83,6.762,2.533,9.489,5.026c2.768,2.53,5.134,5.529,7.307,8.573
							c2.428,3.408,4.694,6.927,7.008,10.412c2.304,3.464,4.649,6.919,7.257,10.165c2.527,3.138,5.443,6.256,9.005,8.229
							c0.035,0.019,0.063,0.041,0.094,0.064c4.313,0.817,8.712,0.578,13.07,0.341c2.174-0.119,4.351-0.242,6.527-0.229
							c1.674,0.007,3.416,0.007,5.088,0.288c-2.958-2.64-5.416-5.896-8.004-8.891L320.179,339.04z"/>
					</g>
					
						<rect x="259.424" y="270.793" transform="matrix(-0.911 -0.4124 0.4124 -0.911 391.6578 669.0297)" fill="#F2E6CD" width="17.179" height="42.928"/>
					
						<rect x="220.86" y="258.544" transform="matrix(-0.911 -0.4124 0.4124 -0.911 344.9041 634.441)" fill="#EA4F77" width="40.086" height="42.928"/>
				</g>
				<g>
					<g>
						<path fill="#FFAB25" d="M420.413,352.972c1.626,0.162,3.307,0.064,4.938,0.081c1.966,0.022,3.935-0.015,5.9-0.076
							c3.653-0.113,7.3-0.318,10.952-0.451c-0.523-1.424-0.433-3.121-0.052-4.564c0.58-2.192,1.856-4.189,3.35-5.967
							c-2.28-0.432-4.563,0.58-6.697,1.264c-2.488,0.799-5.021,0.824-7.605,0.997c-2.546,0.169-5.122,0.567-7.202,2.161
							C422.053,347.905,420.276,350.423,420.413,352.972z"/>
						<path fill="#FFAB25" d="M419.389,347.251c0.543,0.319,1.233,0.441,1.839,0.584c0.422-0.56,0.889-1.082,1.376-1.567
							c2.045-2.041,4.891-2.724,7.679-2.974c2.795-0.25,5.568-0.166,8.269-1.031c2.509-0.805,5.03-1.854,7.692-1.148
							c0.008,0.002,0.016,0.003,0.021,0.006c0.513-0.559,1.039-1.096,1.562-1.604c0.18-0.174,0.36-0.346,0.543-0.515
							c-2.505-0.253-5.02,0.135-7.493,0.562c-2.733,0.471-5.424,0.834-8.193,0.969c-2.777,0.136-5.648,0.241-8.268,1.265
							C422.098,342.702,419.547,344.587,419.389,347.251z"/>
						<path fill="#FFAB25" d="M465.981,339.04c0.08-0.096,0.164-0.177,0.191-0.239c0.462-0.495,0.934-0.983,1.414-1.464l1.214-1.187
							c0.009-0.029,0.196-0.146,0.199-0.176c0.673-0.624,1.361-1.229,2.068-1.81l0.76-0.605c0.668-0.519,1.356-1.017,2.061-1.486
							c3.199-2.123,6.675-3.656,10.372-4.675c0.639-0.175,0.438-1.186-0.203-1.009c-4.11,1.131-7.98,2.865-11.468,5.335
							c-2.656,1.883-5.049,4.101-7.266,6.479c-0.043,0.043-0.087,0.085-0.128,0.134c-0.325,0.352-0.646,0.706-0.965,1.065
							c-2.128,2.389-4.085,4.927-6.281,7.258c-2.211,2.346-4.694,4.653-7.714,5.906c-2.351,0.974-5.756,2.461-7.218-0.354
							c-1.417-2.725,0.63-5.371,2.131-7.723c2.004-3.142,4.771-5.677,7.602-8.061c2.812-2.364,5.116-5.313,7.8-7.825
							c2.526-2.366,4.248-5.724,5.354-9.054c0.019-0.035,0.034-0.074,0.046-0.118c0.005-0.021,0.01-0.04,0.015-0.06
							c0.002-0.006,0.005-0.011,0.005-0.016c0.005-0.014,0.005-0.026,0.01-0.04c1.448-5.903,2.513-12.826,7.135-17.201
							c2.437-2.305,5.458-3.78,8.329-5.444c1.41-0.817,2.86-1.666,4.104-2.728c1.234-1.053,2.431-2.154,3.639-3.238
							c2.815-2.535,5.762-4.88,9.345-6.226c3.422-1.283,6.989-2.181,10.618-2.6c3.64-0.416,7.235-0.223,10.881-0.094
							c0.233,0.007,0.468,0.015,0.701,0.022l3.394,24.651c-1.018,0.096-2.027,0.252-3.024,0.481
							c-3.601,0.83-6.763,2.533-9.489,5.026c-2.768,2.53-5.134,5.529-7.307,8.573c-2.429,3.408-4.693,6.927-7.008,10.412
							c-2.304,3.464-4.649,6.919-7.259,10.165c-2.524,3.138-5.441,6.256-9.004,8.229c-0.035,0.019-0.064,0.041-0.094,0.064
							c-4.313,0.817-8.712,0.578-13.069,0.341c-2.175-0.119-4.351-0.242-6.527-0.229c-1.675,0.007-3.416,0.007-5.089,0.288
							c2.959-2.64,5.416-5.896,8.005-8.891L465.981,339.04z"/>
					</g>
					
						<rect x="509.558" y="270.793" transform="matrix(0.911 -0.4124 0.4124 0.911 -74.4125 239.6839)" fill="#F2E6CD" width="17.178" height="42.928"/>
					
						<rect x="525.214" y="258.544" transform="matrix(0.911 -0.4124 0.4124 0.911 -66.9479 249.7607)" fill="#EA4F77" width="40.086" height="42.928"/>
				</g>
			</g>
			<g>
				<g>
					<path fill="#FFAB25" d="M637.54,437.029c5.046,0,9.149,4.096,9.149,9.148c0,5.049-4.104,9.144-9.149,9.144
						c-5.05,0-9.137-4.095-9.137-9.144C628.403,441.128,632.49,437.029,637.54,437.029z"/>
					<path fill="#EA4F78" d="M637.54,450.195c2.214,0,4.014-1.804,4.014-4.018c0-2.208-1.8-4.009-4.014-4.009
						c-2.209,0-4.011,1.794-4.011,4.009C633.529,448.388,635.331,450.195,637.54,450.195z"/>
					
						<linearGradient id="SVGID_1_" gradientUnits="userSpaceOnUse" x1="665.6094" y1="442.8457" x2="665.6094" y2="442.8457" gradientTransform="matrix(-1 0 0 1 1382.3242 0)">
						<stop  offset="0" style="stop-color:#FFFFFF"/>
						<stop  offset="0.074" style="stop-color:#ECECEF"/>
						<stop  offset="0.1757" style="stop-color:#D8D8DF"/>
						<stop  offset="0.2446" style="stop-color:#D1D1D9"/>
						<stop  offset="0.5537" style="stop-color:#E1E1E6"/>
						<stop  offset="1" style="stop-color:#F5F5F5"/>
					</linearGradient>
					<polygon fill="url(#SVGID_1_)" points="716.715,442.846 716.715,442.846 716.715,442.846 					"/>
					<path fill="#FFAB25" d="M721.737,442.846h-5.022c0.146,0.646,0.236,1.315,0.236,1.992c0,0.575-0.067,1.13-0.168,1.674h4.954
						V442.846z"/>
					<path fill="#FFAB25" d="M691.962,442.842h-3.824v0.004v3.666h3.776c-0.071-0.549-0.128-1.104-0.128-1.674
						C691.786,444.157,691.855,443.492,691.962,442.842z"/>
					<path fill="#FFAB25" d="M648.725,444.833c0.086,0.554,0.14,1.106,0.14,1.674c0,0.347-0.017,0.675-0.049,1.013h38.303v-2.687
						H648.725z"/>
					<path fill="#F2E6CD" d="M686.351,397.772l0.001,9.005c0.266,0,0.511,0,0.767,0v34.803v2.491h-38.522
						c-1.123-5.136-5.706-9.003-11.18-9.003c-5.014,0-9.284,3.256-10.824,7.76l-0.449,0.288h-9.4v-10.289h-2.938v-35.055H686.351z"
						/>
					<rect x="614.046" y="432.982" fill="#1F4368" width="1.784" height="8.86"/>
					<path fill="#FFAB25" d="M626.024,443.876h-10.303v2.685h10.206c-0.025-0.335-0.048-0.668-0.048-1.013
						C625.88,444.979,625.932,444.429,626.024,443.876z"/>
					<path fill="#EA4F77" d="M721.403,423.273v4.011v14.56h-0.006h-5.572c-1.345-5.289-6.136-9.209-11.825-9.209
						c-5.702,0-10.491,3.928-11.824,9.209h-4.105v-35.129h25.774L721.403,423.273z"/>
					<polygon fill="#1F4368" points="690.886,409.383 690.886,418.085 700.835,418.085 708.196,424.276 718.032,424.276 
						712.54,409.383 					"/>
					<path fill="#FFAB25" d="M703.965,436.368c5.42,0,9.811,4.394,9.811,9.81c0,5.425-4.39,9.817-9.811,9.817
						c-5.417,0-9.815-4.393-9.815-9.817C694.154,440.759,698.553,436.368,703.965,436.368z"/>
					<path fill="#EA4F78" d="M703.965,450.479c2.373,0,4.308-1.934,4.308-4.302c0-2.372-1.935-4.301-4.308-4.301
						c-2.378,0-4.303,1.929-4.303,4.301C699.662,448.552,701.591,450.479,703.965,450.479z"/>
				</g>
				<polygon fill="#EA4F77" points="608.474,413.138 562.076,409.659 608.474,406.181 				"/>
				<polygon fill="#EA4F77" points="608.474,424.398 562.076,420.919 608.474,417.442 				"/>
				<polygon fill="#EA4F77" points="608.474,435.661 562.076,432.183 608.474,428.703 				"/>
			</g>
			<g>
				<g>
					<g>
						<rect x="632.848" y="164.69" fill="#EA4F77" width="71.146" height="71.144"/>
						<g>
							<rect x="659.452" y="168.368" fill="#9B9826" width="7.347" height="14.7"/>
							<rect x="670.044" y="168.368" fill="#9B9826" width="7.354" height="14.7"/>
						</g>
						<polygon fill="#9B9826" points="650.314,223.147 645.104,218.405 639.885,223.147 641.973,223.147 641.973,231.579 
							648.226,231.579 648.226,223.147 						"/>
					</g>
				</g>
				<path fill="#F2E6CD" d="M722.328,150.405v-5.685c0-7.064-5.746-12.815-12.811-12.815c-7.067,0-12.811,5.75-12.811,12.815v5.685
					h-2.488v23.82h30.851v-23.82H722.328z M712.533,162.731v5.037c0,1.31-1.061,2.375-2.376,2.375c-1.317,0-2.378-1.06-2.378-2.375
					v-5.037c-0.827-0.688-1.366-1.713-1.366-2.869c0-2.066,1.675-3.739,3.744-3.739c2.067,0,3.739,1.673,3.739,3.739
					C713.896,161.024,713.359,162.044,712.533,162.731z M717.669,150.405h-16.303v-5.685c0-4.498,3.658-8.155,8.155-8.155
					c4.491,0,8.147,3.658,8.147,8.155V150.405z"/>
			</g>
			<g>
				<g>
					<g>
						<rect x="98.521" y="375.968" fill="#16B0A6" width="34.179" height="34.178"/>
						<g>
							<rect x="111.302" y="377.735" fill="#EA4F78" width="3.529" height="7.062"/>
							<rect x="116.391" y="377.735" fill="#EA4F78" width="3.532" height="7.062"/>
						</g>
						<polygon fill="#EA4F78" points="106.912,404.051 104.409,401.773 101.901,404.051 102.904,404.051 102.904,408.104 
							105.908,408.104 105.908,404.051 						"/>
					</g>
				</g>
				<g>
					<path fill="#F2E6CD" d="M92.533,415.916h57.17v-35.757c0-0.976-0.79-1.766-1.765-1.766c-0.976,0-1.767,0.79-1.767,1.766v32.226
						H96.063v-33.066l-14.547-11.842H65.919c-0.975,0-1.766,0.791-1.766,1.767c0,0.975,0.791,1.766,1.766,1.766h14.342l12.272,9.988
						V415.916z"/>
				</g>
				<g>
					<path fill="#F2E6CD" d="M92.533,430.73h49.479c0.976,0,1.766-0.791,1.766-1.766c0-0.977-0.79-1.766-1.766-1.766H96.063v-14.451
						c0-0.977-0.79-1.766-1.765-1.766c-0.976,0-1.766,0.789-1.766,1.766V430.73z"/>
				</g>
				<g>
					<path fill="#F2E6CD" d="M142.011,430.73c0.619,0,1.22-0.326,1.544-0.904c0.475-0.852,0.171-1.928-0.681-2.402l-26.508-14.814
						c-0.851-0.475-1.927-0.172-2.403,0.68c-0.475,0.852-0.171,1.928,0.681,2.402l26.508,14.814
						C141.424,430.658,141.72,430.73,142.011,430.73z"/>
				</g>
				<g>
					<path fill="#EA4F78" d="M94.299,436.145c3.959,0,7.181-3.221,7.181-7.18c0-3.961-3.222-7.182-7.181-7.182
						c-3.961,0-7.182,3.221-7.182,7.182C87.117,432.924,90.338,436.145,94.299,436.145z"/>
					<path fill="#F2E6CD" d="M94.299,423.014c3.28,0,5.95,2.67,5.95,5.951s-2.67,5.949-5.95,5.949c-3.281,0-5.951-2.668-5.951-5.949
						S91.018,423.014,94.299,423.014 M94.299,420.553c-4.646,0-8.412,3.766-8.412,8.412c0,4.645,3.766,8.412,8.412,8.412
						c4.646,0,8.411-3.768,8.411-8.412C102.71,424.318,98.944,420.553,94.299,420.553L94.299,420.553z"/>
				</g>
				<g>
					<path fill="#EA4F78" d="M142.013,436.145c3.96,0,7.181-3.221,7.181-7.18c0-3.961-3.221-7.182-7.181-7.182
						s-7.181,3.221-7.181,7.182C134.832,432.924,138.053,436.145,142.013,436.145z"/>
					<path fill="#F2E6CD" d="M142.013,423.014c3.281,0,5.95,2.67,5.95,5.951s-2.669,5.949-5.95,5.949s-5.95-2.668-5.95-5.949
						S138.731,423.014,142.013,423.014 M142.013,420.553c-4.646,0-8.412,3.766-8.412,8.412c0,4.645,3.766,8.412,8.412,8.412
						c4.646,0,8.412-3.768,8.412-8.412C150.425,424.318,146.658,420.553,142.013,420.553L142.013,420.553z"/>
				</g>
			</g>
			<path fill="none" stroke="#F2E6CD" stroke-miterlimit="10" stroke-dasharray="2,2" d="M159,178.52
				c0,0,164.519-57.607,198.033-46.615c33.515,10.993-29.792,46.974-43.132,33.971c-13.34-13.003,18.032-55.338,55.697-60.296
				c37.664-4.958,228.909,127.228,258.805,78.637"/>
			<path fill="none" stroke="#F2E6CD" stroke-miterlimit="10" stroke-dasharray="2,2" d="M629.654,203.24
				c0,0-27.745,8.689-22.652,57.938c5.094,49.249,79.635,96.193,10.689,131.918"/>
			<path fill="none" stroke="#F2E6CD" stroke-miterlimit="10" stroke-dasharray="2,2" d="M569.334,416.83
				c0,0-304.667-35.564-307.299,30.689C260.522,485.61,353.207,482,357.552,467c29.445-59.449-167.367-98.489-207.849-73.669"/>
			<path fill="none" stroke="#F2E6CD" stroke-miterlimit="10" stroke-dasharray="2,2" d="M123.704,369.252
				c0,0-53.603-19.267-46.952-64.152c6.65-44.886,77.748-27.1,65.827-57.32c-7.791-19.75-38.793,8.87-26.968,27.22
				c12.052,18.702,157.602-51.662,190.835-22.811"/>
			<g>
				<path fill="#F295AE" d="M164.097,219.013c0,0-0.033,0.838,0.787,0.838c1.018,0,9.451-0.012,9.451-0.012l0.013-7.744
					c0,0-0.133-1.276,1.106-1.276h3.921c1.465,0,1.375,1.276,1.375,1.276l-0.015,7.722c0,0,7.996,0,9.25,0
					c1.041,0,0.992-1.044,0.992-1.044v-14.279l-13.038-11.602l-13.843,11.602V219.013z"/>
				<path fill="#F295AE" d="M159,203.415c0,0,1.175,2.167,3.737,0l15.317-12.958l14.363,12.877c2.967,2.142,4.079,0,4.079,0
					l-18.441-16.704L159,203.415z"/>
				<polygon fill="#F295AE" points="192.069,190.425 188.373,190.425 188.392,194.904 192.069,198.026 				"/>
			</g>
			<path fill="#F295AE" d="M668.747,369.515c0.032-0.179,0.052-0.363,0.052-0.547l1.782-14.866h0.224l16.692,5.502l-0.39-4.322
				l-4.915-3.309l-4.913-3.309l-6.475-4.361h-0.066l-0.919-10.249c0,0-0.665-3.102-2.035-3.102c-1.367,0-1.905,2.7-1.905,2.7
				l-1.039,11.071l-5.651,3.952l-4.923,3.439l-4.532,3.165l-0.39,4.873l15.651-5.803l1.39,14.227c0,0.334,0.012,0.655,0.041,0.961
				l-5.085,3.48v2.165l5.146-1.775h0.36h1.186h1.035l5.268,1.659v-1.888L668.747,369.515z"/>
			<path fill="#F295AE" d="M408.388,151.54c-5.511-5.512-14.446-5.512-19.956,0c-5.514,5.511-5.514,14.448,0,19.956
				c5.511,5.511,14.446,5.514,19.956,0C413.901,165.985,413.901,157.05,408.388,151.54z M405.907,162.4h-7.523l-0.037,0.007
				c-0.522,0-0.945-0.427-0.945-0.945v-9.458c0-0.522,0.423-0.946,0.945-0.946c0.52,0,0.945,0.424,0.945,0.946v8.506h6.615
				c0.521,0,0.945,0.421,0.945,0.945C406.853,161.976,406.428,162.4,405.907,162.4z"/>
			<g>
				<g>
					<polygon fill="#EA4F77" points="121.997,150.994 112.8,142.622 103.59,150.994 107.273,150.994 107.273,165.876 
						118.322,165.876 118.322,150.994 					"/>
					<polygon fill="#16B0A6" points="126.063,157.505 135.258,165.876 144.472,157.505 140.787,157.505 140.787,142.622 
						129.74,142.622 129.74,157.505 					"/>
				</g>
				<g>
					<g>
						<rect x="96.459" y="175.669" fill="#F2E6CD" width="55.143" height="55.141"/>
						<g>
							<rect x="117.079" y="178.52" fill="#EA4F78" width="5.693" height="11.394"/>
							<rect x="125.288" y="178.52" fill="#EA4F78" width="5.699" height="11.394"/>
						</g>
						<polygon fill="#EA4F78" points="109.997,220.976 105.958,217.302 101.913,220.976 103.531,220.976 103.531,227.512 
							108.378,227.512 108.378,220.976 						"/>
					</g>
				</g>
			</g>
		</g>
	</g>
</g>
</svg>
